# MagicaVoxel @ Ephtracy

# group
o 

# material
mtllib corazon 3d.mtl
usemtl palette

# normals
vn -1 0 0
vn 1 0 0
vn 0 0 1
vn 0 0 -1
vn 0 -1 0
vn 0 1 0

# texcoords
vt 0.841797 0.5
vt 0.958984 0.5

# verts
v -0.3 0.3 0.2
v -0.3 0.3 -0.1
v -0.3 0.4 0.4
v -0.3 0.4 0.2
v -0.3 0.4 -0.1
v -0.3 0.4 -0.3
v -0.3 0.5 0.2
v -0.3 0.5 -0.1
v -0.3 0.5 -0.2
v -0.3 0.6 0.4
v -0.3 0.6 0.2
v -0.3 0.6 -0.1
v -0.3 0.6 -0.2
v -0.3 0.6 -0.3
v -0.2 0.1 0.1
v -0.2 0.1 0
v -0.2 0.2 0.2
v -0.2 0.2 0.1
v -0.2 0.2 0
v -0.2 0.2 -0.1
v -0.2 0.3 0.3
v -0.2 0.3 0.2
v -0.2 0.3 0.1
v -0.2 0.3 -0.1
v -0.2 0.3 -0.2
v -0.2 0.4 0.5
v -0.2 0.4 0.4
v -0.2 0.4 0.3
v -0.2 0.4 0.2
v -0.2 0.4 -0.1
v -0.2 0.4 -0.2
v -0.2 0.4 -0.3
v -0.2 0.4 -0.4
v -0.2 0.5 0.2
v -0.2 0.5 0.1
v -0.2 0.5 0
v -0.2 0.5 -0.1
v -0.2 0.6 0.5
v -0.2 0.6 0.4
v -0.2 0.6 0.2
v -0.2 0.6 0.1
v -0.2 0.6 0
v -0.2 0.6 -0.1
v -0.2 0.6 -0.2
v -0.2 0.6 -0.3
v -0.2 0.6 -0.4
v -0.2 0.7 0.4
v -0.2 0.7 0.2
v -0.2 0.7 -0.1
v -0.2 0.7 -0.3
v -0.1 0 0.1
v -0.1 0 0
v -0.1 0.1 0.2
v -0.1 0.1 0.1
v -0.1 0.1 0
v -0.1 0.1 -0.1
v -0.1 0.2 0.2
v -0.1 0.2 0.1
v -0.1 0.2 0
v -0.1 0.2 -0.1
v -0.1 0.3 0.4
v -0.1 0.3 0.3
v -0.1 0.3 -0.2
v -0.1 0.3 -0.3
v -0.1 0.4 0.4
v -0.1 0.4 0.3
v -0.1 0.4 -0.2
v -0.1 0.4 -0.3
v -0.1 0.5 0.1
v -0.1 0.5 0
v -0.1 0.6 0.5
v -0.1 0.6 0.4
v -0.1 0.6 0.2
v -0.1 0.6 0.1
v -0.1 0.6 0
v -0.1 0.6 -0.1
v -0.1 0.6 -0.3
v -0.1 0.6 -0.4
v -0.1 0.7 0.5
v -0.1 0.7 0.4
v -0.1 0.7 0.2
v -0.1 0.7 0.1
v -0.1 0.7 0
v -0.1 0.7 -0.1
v -0.1 0.7 -0.3
v -0.1 0.7 -0.4
v -0.1 0.8 0.4
v -0.1 0.8 0.2
v -0.1 0.8 -0.1
v -0.1 0.8 -0.3
v 0.1 0 0.1
v 0.1 0 0
v 0.1 0.1 0.2
v 0.1 0.1 0.1
v 0.1 0.1 0
v 0.1 0.1 -0.1
v 0.1 0.2 0.2
v 0.1 0.2 0.1
v 0.1 0.2 0
v 0.1 0.2 -0.1
v 0.1 0.3 0.4
v 0.1 0.3 0.3
v 0.1 0.3 -0.2
v 0.1 0.3 -0.3
v 0.1 0.4 0.4
v 0.1 0.4 0.3
v 0.1 0.4 -0.2
v 0.1 0.4 -0.3
v 0.1 0.5 0.1
v 0.1 0.5 0
v 0.1 0.6 0.5
v 0.1 0.6 0.4
v 0.1 0.6 0.2
v 0.1 0.6 0.1
v 0.1 0.6 0
v 0.1 0.6 -0.1
v 0.1 0.6 -0.3
v 0.1 0.6 -0.4
v 0.1 0.7 0.5
v 0.1 0.7 0.4
v 0.1 0.7 0.2
v 0.1 0.7 0.1
v 0.1 0.7 0
v 0.1 0.7 -0.1
v 0.1 0.7 -0.3
v 0.1 0.7 -0.4
v 0.1 0.8 0.4
v 0.1 0.8 0.2
v 0.1 0.8 -0.1
v 0.1 0.8 -0.3
v 0.2 0.1 0.1
v 0.2 0.1 0
v 0.2 0.2 0.2
v 0.2 0.2 0.1
v 0.2 0.2 0
v 0.2 0.2 -0.1
v 0.2 0.3 0.3
v 0.2 0.3 0.2
v 0.2 0.3 0.1
v 0.2 0.3 -0.1
v 0.2 0.3 -0.2
v 0.2 0.4 0.5
v 0.2 0.4 0.4
v 0.2 0.4 0.3
v 0.2 0.4 0.2
v 0.2 0.4 -0.1
v 0.2 0.4 -0.2
v 0.2 0.4 -0.3
v 0.2 0.4 -0.4
v 0.2 0.5 0.2
v 0.2 0.5 0.1
v 0.2 0.5 0
v 0.2 0.5 -0.1
v 0.2 0.6 0.5
v 0.2 0.6 0.4
v 0.2 0.6 0.2
v 0.2 0.6 0.1
v 0.2 0.6 0
v 0.2 0.6 -0.1
v 0.2 0.6 -0.2
v 0.2 0.6 -0.3
v 0.2 0.6 -0.4
v 0.2 0.7 0.4
v 0.2 0.7 0.2
v 0.2 0.7 -0.1
v 0.2 0.7 -0.3
v 0.3 0.3 0.2
v 0.3 0.3 -0.1
v 0.3 0.4 0.4
v 0.3 0.4 0.2
v 0.3 0.4 -0.1
v 0.3 0.4 -0.3
v 0.3 0.5 0.2
v 0.3 0.5 -0.1
v 0.3 0.5 -0.2
v 0.3 0.6 0.4
v 0.3 0.6 0.2
v 0.3 0.6 -0.1
v 0.3 0.6 -0.2
v 0.3 0.6 -0.3
v -0.2 0.4 0.5
v -0.2 0.6 0.5
v -0.1 0.6 0.5
v -0.1 0.7 0.5
v 0.1 0.6 0.5
v 0.1 0.7 0.5
v 0.2 0.4 0.5
v 0.2 0.6 0.5
v -0.3 0.4 0.4
v -0.3 0.6 0.4
v -0.2 0.4 0.4
v -0.2 0.6 0.4
v -0.2 0.7 0.4
v -0.1 0.3 0.4
v -0.1 0.4 0.4
v -0.1 0.6 0.4
v -0.1 0.7 0.4
v -0.1 0.8 0.4
v 0.1 0.3 0.4
v 0.1 0.4 0.4
v 0.1 0.6 0.4
v 0.1 0.7 0.4
v 0.1 0.8 0.4
v 0.2 0.4 0.4
v 0.2 0.6 0.4
v 0.2 0.7 0.4
v 0.3 0.4 0.4
v 0.3 0.6 0.4
v -0.2 0.3 0.3
v -0.2 0.4 0.3
v -0.1 0.3 0.3
v -0.1 0.4 0.3
v 0.1 0.3 0.3
v 0.1 0.4 0.3
v 0.2 0.3 0.3
v 0.2 0.4 0.3
v -0.3 0.3 0.2
v -0.3 0.4 0.2
v -0.2 0.2 0.2
v -0.2 0.3 0.2
v -0.2 0.4 0.2
v -0.1 0.1 0.2
v -0.1 0.2 0.2
v -0.1 0.3 0.2
v 0.1 0.1 0.2
v 0.1 0.2 0.2
v 0.1 0.3 0.2
v 0.2 0.2 0.2
v 0.2 0.3 0.2
v 0.2 0.4 0.2
v 0.3 0.3 0.2
v 0.3 0.4 0.2
v -0.2 0.1 0.1
v -0.2 0.2 0.1
v -0.1 0 0.1
v -0.1 0.1 0.1
v -0.1 0.2 0.1
v 0.1 0 0.1
v 0.1 0.1 0.1
v 0.1 0.2 0.1
v 0.2 0.1 0.1
v 0.2 0.2 0.1
v -0.2 0.5 0
v -0.2 0.6 0
v -0.1 0.5 0
v -0.1 0.6 0
v -0.1 0.7 0
v 0.1 0.5 0
v 0.1 0.6 0
v 0.1 0.7 0
v 0.2 0.5 0
v 0.2 0.6 0
v -0.3 0.5 -0.1
v -0.3 0.6 -0.1
v -0.2 0.5 -0.1
v -0.2 0.6 -0.1
v -0.2 0.7 -0.1
v -0.1 0.6 -0.1
v -0.1 0.7 -0.1
v -0.1 0.8 -0.1
v 0.1 0.6 -0.1
v 0.1 0.7 -0.1
v 0.1 0.8 -0.1
v 0.2 0.5 -0.1
v 0.2 0.6 -0.1
v 0.2 0.7 -0.1
v 0.3 0.5 -0.1
v 0.3 0.6 -0.1
v -0.3 0.5 0.2
v -0.3 0.6 0.2
v -0.2 0.5 0.2
v -0.2 0.6 0.2
v -0.2 0.7 0.2
v -0.1 0.6 0.2
v -0.1 0.7 0.2
v -0.1 0.8 0.2
v 0.1 0.6 0.2
v 0.1 0.7 0.2
v 0.1 0.8 0.2
v 0.2 0.5 0.2
v 0.2 0.6 0.2
v 0.2 0.7 0.2
v 0.3 0.5 0.2
v 0.3 0.6 0.2
v -0.2 0.5 0.1
v -0.2 0.6 0.1
v -0.1 0.5 0.1
v -0.1 0.6 0.1
v -0.1 0.7 0.1
v 0.1 0.5 0.1
v 0.1 0.6 0.1
v 0.1 0.7 0.1
v 0.2 0.5 0.1
v 0.2 0.6 0.1
v -0.2 0.1 0
v -0.2 0.2 0
v -0.1 0 0
v -0.1 0.1 0
v -0.1 0.2 0
v 0.1 0 0
v 0.1 0.1 0
v 0.1 0.2 0
v 0.2 0.1 0
v 0.2 0.2 0
v -0.3 0.3 -0.1
v -0.3 0.4 -0.1
v -0.2 0.2 -0.1
v -0.2 0.3 -0.1
v -0.2 0.4 -0.1
v -0.1 0.1 -0.1
v -0.1 0.2 -0.1
v 0.1 0.1 -0.1
v 0.1 0.2 -0.1
v 0.2 0.2 -0.1
v 0.2 0.3 -0.1
v 0.2 0.4 -0.1
v 0.3 0.3 -0.1
v 0.3 0.4 -0.1
v -0.2 0.3 -0.2
v -0.2 0.4 -0.2
v -0.1 0.3 -0.2
v -0.1 0.4 -0.2
v 0.1 0.3 -0.2
v 0.1 0.4 -0.2
v 0.2 0.3 -0.2
v 0.2 0.4 -0.2
v -0.3 0.4 -0.3
v -0.3 0.6 -0.3
v -0.2 0.4 -0.3
v -0.2 0.6 -0.3
v -0.2 0.7 -0.3
v -0.1 0.3 -0.3
v -0.1 0.4 -0.3
v -0.1 0.6 -0.3
v -0.1 0.7 -0.3
v -0.1 0.8 -0.3
v 0.1 0.3 -0.3
v 0.1 0.4 -0.3
v 0.1 0.6 -0.3
v 0.1 0.7 -0.3
v 0.1 0.8 -0.3
v 0.2 0.4 -0.3
v 0.2 0.6 -0.3
v 0.2 0.7 -0.3
v 0.3 0.4 -0.3
v 0.3 0.6 -0.3
v -0.2 0.4 -0.4
v -0.2 0.6 -0.4
v -0.1 0.6 -0.4
v -0.1 0.7 -0.4
v 0.1 0.6 -0.4
v 0.1 0.7 -0.4
v 0.2 0.4 -0.4
v 0.2 0.6 -0.4
v -0.1 0 0.1
v 0.1 0 0.1
v -0.1 0 0
v 0.1 0 0
v -0.1 0.1 0.2
v 0.1 0.1 0.2
v -0.2 0.1 0.1
v -0.1 0.1 0.1
v 0.1 0.1 0.1
v 0.2 0.1 0.1
v -0.2 0.1 0
v -0.1 0.1 0
v 0.1 0.1 0
v 0.2 0.1 0
v -0.1 0.1 -0.1
v 0.1 0.1 -0.1
v -0.2 0.2 0.2
v -0.1 0.2 0.2
v 0.1 0.2 0.2
v 0.2 0.2 0.2
v -0.2 0.2 0.1
v -0.1 0.2 0.1
v 0.1 0.2 0.1
v 0.2 0.2 0.1
v -0.2 0.2 0
v -0.1 0.2 0
v 0.1 0.2 0
v 0.2 0.2 0
v -0.2 0.2 -0.1
v -0.1 0.2 -0.1
v 0.1 0.2 -0.1
v 0.2 0.2 -0.1
v -0.1 0.3 0.4
v 0.1 0.3 0.4
v -0.2 0.3 0.3
v -0.1 0.3 0.3
v 0.1 0.3 0.3
v 0.2 0.3 0.3
v -0.3 0.3 0.2
v -0.2 0.3 0.2
v -0.1 0.3 0.2
v 0.1 0.3 0.2
v 0.2 0.3 0.2
v 0.3 0.3 0.2
v -0.2 0.3 0.1
v 0.2 0.3 0.1
v -0.3 0.3 -0.1
v -0.2 0.3 -0.1
v 0.2 0.3 -0.1
v 0.3 0.3 -0.1
v -0.2 0.3 -0.2
v -0.1 0.3 -0.2
v 0.1 0.3 -0.2
v 0.2 0.3 -0.2
v -0.1 0.3 -0.3
v 0.1 0.3 -0.3
v -0.2 0.4 0.5
v 0.2 0.4 0.5
v -0.3 0.4 0.4
v -0.2 0.4 0.4
v -0.1 0.4 0.4
v 0.1 0.4 0.4
v 0.2 0.4 0.4
v 0.3 0.4 0.4
v -0.2 0.4 0.3
v -0.1 0.4 0.3
v 0.1 0.4 0.3
v 0.2 0.4 0.3
v -0.3 0.4 0.2
v -0.2 0.4 0.2
v 0.2 0.4 0.2
v 0.3 0.4 0.2
v -0.3 0.4 -0.1
v -0.2 0.4 -0.1
v 0.2 0.4 -0.1
v 0.3 0.4 -0.1
v -0.2 0.4 -0.2
v -0.1 0.4 -0.2
v 0.1 0.4 -0.2
v 0.2 0.4 -0.2
v -0.3 0.4 -0.3
v -0.2 0.4 -0.3
v -0.1 0.4 -0.3
v 0.1 0.4 -0.3
v 0.2 0.4 -0.3
v 0.3 0.4 -0.3
v -0.2 0.4 -0.4
v 0.2 0.4 -0.4
v -0.3 0.5 0.2
v -0.2 0.5 0.2
v 0.2 0.5 0.2
v 0.3 0.5 0.2
v -0.2 0.5 0.1
v -0.1 0.5 0.1
v 0.1 0.5 0.1
v 0.2 0.5 0.1
v -0.2 0.5 0
v -0.1 0.5 0
v 0.1 0.5 0
v 0.2 0.5 0
v -0.3 0.5 -0.1
v -0.2 0.5 -0.1
v 0.2 0.5 -0.1
v 0.3 0.5 -0.1
v -0.2 0.6 0.5
v -0.1 0.6 0.5
v 0.1 0.6 0.5
v 0.2 0.6 0.5
v -0.3 0.6 0.4
v -0.2 0.6 0.4
v -0.1 0.6 0.4
v 0.1 0.6 0.4
v 0.2 0.6 0.4
v 0.3 0.6 0.4
v -0.3 0.6 0.2
v -0.2 0.6 0.2
v -0.1 0.6 0.2
v 0.1 0.6 0.2
v 0.2 0.6 0.2
v 0.3 0.6 0.2
v -0.2 0.6 0.1
v -0.1 0.6 0.1
v 0.1 0.6 0.1
v 0.2 0.6 0.1
v -0.2 0.6 0
v -0.1 0.6 0
v 0.1 0.6 0
v 0.2 0.6 0
v -0.3 0.6 -0.1
v -0.2 0.6 -0.1
v -0.1 0.6 -0.1
v 0.1 0.6 -0.1
v 0.2 0.6 -0.1
v 0.3 0.6 -0.1
v -0.3 0.6 -0.2
v -0.2 0.6 -0.2
v 0.2 0.6 -0.2
v 0.3 0.6 -0.2
v -0.3 0.6 -0.3
v -0.2 0.6 -0.3
v -0.1 0.6 -0.3
v 0.1 0.6 -0.3
v 0.2 0.6 -0.3
v 0.3 0.6 -0.3
v -0.2 0.6 -0.4
v -0.1 0.6 -0.4
v 0.1 0.6 -0.4
v 0.2 0.6 -0.4
v -0.1 0.7 0.5
v 0.1 0.7 0.5
v -0.2 0.7 0.4
v -0.1 0.7 0.4
v 0.1 0.7 0.4
v 0.2 0.7 0.4
v -0.2 0.7 0.2
v -0.1 0.7 0.2
v 0.1 0.7 0.2
v 0.2 0.7 0.2
v -0.1 0.7 0.1
v 0.1 0.7 0.1
v -0.1 0.7 0
v 0.1 0.7 0
v -0.2 0.7 -0.1
v -0.1 0.7 -0.1
v 0.1 0.7 -0.1
v 0.2 0.7 -0.1
v -0.2 0.7 -0.3
v -0.1 0.7 -0.3
v 0.1 0.7 -0.3
v 0.2 0.7 -0.3
v -0.1 0.7 -0.4
v 0.1 0.7 -0.4
v -0.1 0.8 0.4
v 0.1 0.8 0.4
v -0.1 0.8 0.2
v 0.1 0.8 0.2
v -0.1 0.8 -0.1
v 0.1 0.8 -0.1
v -0.1 0.8 -0.3
v 0.1 0.8 -0.3

# faces
f 4/1/1 2/1/1 1/1/1
f 5/1/1 2/1/1 4/1/1
f 7/1/1 4/1/1 3/1/1
f 7/1/1 6/1/1 5/1/1
f 7/1/1 5/1/1 4/1/1
f 8/1/1 6/1/1 7/1/1
f 9/1/1 6/1/1 8/1/1
f 10/1/1 7/1/1 3/1/1
f 11/1/1 7/1/1 10/1/1
f 12/2/1 9/2/1 8/2/1
f 13/1/1 6/1/1 9/1/1
f 13/2/1 9/2/1 12/2/1
f 14/1/1 6/1/1 13/1/1
f 18/2/1 16/2/1 15/2/1
f 19/2/1 16/2/1 18/2/1
f 22/2/1 18/2/1 17/2/1
f 23/1/1 20/1/1 19/1/1
f 23/1/1 19/1/1 18/1/1
f 23/2/1 18/2/1 22/2/1
f 24/1/1 20/1/1 23/1/1
f 28/1/1 22/1/1 21/1/1
f 29/1/1 22/1/1 28/1/1
f 30/1/1 25/1/1 24/1/1
f 31/1/1 25/1/1 30/1/1
f 38/1/1 27/1/1 26/1/1
f 39/1/1 27/1/1 38/1/1
f 40/1/1 35/1/1 34/1/1
f 41/1/1 35/1/1 40/1/1
f 42/2/1 37/2/1 36/2/1
f 43/2/1 37/2/1 42/2/1
f 45/1/1 33/1/1 32/1/1
f 46/1/1 33/1/1 45/1/1
f 47/1/1 40/1/1 39/1/1
f 48/1/1 40/1/1 47/1/1
f 49/2/1 44/2/1 43/2/1
f 49/2/1 45/2/1 44/2/1
f 50/2/1 45/2/1 49/2/1
f 54/1/1 52/1/1 51/1/1
f 55/1/1 52/1/1 54/1/1
f 57/1/1 54/1/1 53/1/1
f 58/1/1 54/1/1 57/1/1
f 59/1/1 56/1/1 55/1/1
f 60/1/1 56/1/1 59/1/1
f 65/1/1 62/1/1 61/1/1
f 66/1/1 62/1/1 65/1/1
f 67/1/1 64/1/1 63/1/1
f 68/1/1 64/1/1 67/1/1
f 74/1/1 70/1/1 69/1/1
f 75/1/1 70/1/1 74/1/1
f 79/1/1 72/1/1 71/1/1
f 80/1/1 72/1/1 79/1/1
f 81/1/1 74/1/1 73/1/1
f 82/1/1 74/1/1 81/1/1
f 83/1/1 76/1/1 75/1/1
f 84/1/1 76/1/1 83/1/1
f 85/1/1 78/1/1 77/1/1
f 86/1/1 78/1/1 85/1/1
f 87/1/1 81/1/1 80/1/1
f 88/1/1 81/1/1 87/1/1
f 89/1/1 85/1/1 84/1/1
f 90/1/1 85/1/1 89/1/1
f 91/1/2 92/1/2 94/1/2
f 94/1/2 92/1/2 95/1/2
f 93/1/2 94/1/2 97/1/2
f 97/1/2 94/1/2 98/1/2
f 95/1/2 96/1/2 99/1/2
f 99/1/2 96/1/2 100/1/2
f 101/1/2 102/1/2 105/1/2
f 105/1/2 102/1/2 106/1/2
f 103/1/2 104/1/2 107/1/2
f 107/1/2 104/1/2 108/1/2
f 109/1/2 110/1/2 114/1/2
f 114/1/2 110/1/2 115/1/2
f 111/1/2 112/1/2 119/1/2
f 119/1/2 112/1/2 120/1/2
f 113/1/2 114/1/2 121/1/2
f 121/1/2 114/1/2 122/1/2
f 115/1/2 116/1/2 123/1/2
f 123/1/2 116/1/2 124/1/2
f 117/1/2 118/1/2 125/1/2
f 125/1/2 118/1/2 126/1/2
f 120/1/2 121/1/2 127/1/2
f 127/1/2 121/1/2 128/1/2
f 124/1/2 125/1/2 129/1/2
f 129/1/2 125/1/2 130/1/2
f 131/2/2 132/2/2 134/2/2
f 134/2/2 132/2/2 135/2/2
f 133/2/2 134/2/2 138/2/2
f 135/1/2 136/1/2 139/1/2
f 134/1/2 135/1/2 139/1/2
f 138/2/2 134/2/2 139/2/2
f 139/1/2 136/1/2 140/1/2
f 137/1/2 138/1/2 144/1/2
f 144/1/2 138/1/2 145/1/2
f 140/1/2 141/1/2 146/1/2
f 146/1/2 141/1/2 147/1/2
f 142/1/2 143/1/2 154/1/2
f 154/1/2 143/1/2 155/1/2
f 150/1/2 151/1/2 156/1/2
f 156/1/2 151/1/2 157/1/2
f 152/2/2 153/2/2 158/2/2
f 158/2/2 153/2/2 159/2/2
f 148/1/2 149/1/2 161/1/2
f 161/1/2 149/1/2 162/1/2
f 155/1/2 156/1/2 163/1/2
f 163/1/2 156/1/2 164/1/2
f 159/2/2 160/2/2 165/2/2
f 160/2/2 161/2/2 165/2/2
f 165/2/2 161/2/2 166/2/2
f 167/1/2 168/1/2 170/1/2
f 170/1/2 168/1/2 171/1/2
f 169/1/2 170/1/2 173/1/2
f 171/1/2 172/1/2 173/1/2
f 170/1/2 171/1/2 173/1/2
f 173/1/2 172/1/2 174/1/2
f 174/1/2 172/1/2 175/1/2
f 169/1/2 173/1/2 176/1/2
f 176/1/2 173/1/2 177/1/2
f 174/2/2 175/2/2 178/2/2
f 175/1/2 172/1/2 179/1/2
f 178/2/2 175/2/2 179/2/2
f 179/1/2 172/1/2 180/1/2
f 183/1/3 182/1/3 181/1/3
f 185/1/3 183/1/3 181/1/3
f 185/1/3 184/1/3 183/1/3
f 186/1/3 184/1/3 185/1/3
f 187/1/3 185/1/3 181/1/3
f 188/1/3 185/1/3 187/1/3
f 191/1/3 190/1/3 189/1/3
f 192/1/3 190/1/3 191/1/3
f 196/1/3 193/1/3 192/1/3
f 197/1/3 193/1/3 196/1/3
f 199/1/3 195/1/3 194/1/3
f 200/1/3 195/1/3 199/1/3
f 202/1/3 198/1/3 197/1/3
f 203/1/3 198/1/3 202/1/3
f 205/1/3 202/1/3 201/1/3
f 206/1/3 202/1/3 205/1/3
f 207/1/3 205/1/3 204/1/3
f 208/1/3 205/1/3 207/1/3
f 211/1/3 210/1/3 209/1/3
f 212/1/3 210/1/3 211/1/3
f 215/1/3 214/1/3 213/1/3
f 216/1/3 214/1/3 215/1/3
f 220/1/3 218/1/3 217/1/3
f 221/1/3 218/1/3 220/1/3
f 223/2/3 220/2/3 219/2/3
f 224/2/3 220/2/3 223/2/3
f 225/1/3 223/1/3 222/1/3
f 225/1/3 224/1/3 223/1/3
f 226/1/3 224/1/3 225/1/3
f 227/1/3 224/1/3 226/1/3
f 228/2/3 227/2/3 226/2/3
f 229/2/3 227/2/3 228/2/3
f 231/1/3 230/1/3 229/1/3
f 232/1/3 230/1/3 231/1/3
f 236/2/3 234/2/3 233/2/3
f 237/2/3 234/2/3 236/2/3
f 238/1/3 236/1/3 235/1/3
f 239/1/3 236/1/3 238/1/3
f 241/2/3 240/2/3 239/2/3
f 242/2/3 240/2/3 241/2/3
f 245/2/3 244/2/3 243/2/3
f 246/2/3 244/2/3 245/2/3
f 249/1/3 247/1/3 246/1/3
f 250/1/3 247/1/3 249/1/3
f 251/2/3 249/2/3 248/2/3
f 252/2/3 249/2/3 251/2/3
f 255/2/3 254/2/3 253/2/3
f 256/2/3 254/2/3 255/2/3
f 258/2/3 257/2/3 256/2/3
f 259/2/3 257/2/3 258/2/3
f 262/1/3 260/1/3 259/1/3
f 263/1/3 260/1/3 262/1/3
f 265/2/3 262/2/3 261/2/3
f 266/2/3 262/2/3 265/2/3
f 267/2/3 265/2/3 264/2/3
f 268/2/3 265/2/3 267/2/3
f 269/1/4 270/1/4 271/1/4
f 271/1/4 270/1/4 272/1/4
f 272/1/4 273/1/4 274/1/4
f 274/1/4 273/1/4 275/1/4
f 275/1/4 276/1/4 278/1/4
f 278/1/4 276/1/4 279/1/4
f 277/1/4 278/1/4 281/1/4
f 281/1/4 278/1/4 282/1/4
f 280/1/4 281/1/4 283/1/4
f 283/1/4 281/1/4 284/1/4
f 285/1/4 286/1/4 287/1/4
f 287/1/4 286/1/4 288/1/4
f 288/1/4 289/1/4 291/1/4
f 291/1/4 289/1/4 292/1/4
f 290/1/4 291/1/4 293/1/4
f 293/1/4 291/1/4 294/1/4
f 295/2/4 296/2/4 298/2/4
f 298/2/4 296/2/4 299/2/4
f 297/1/4 298/1/4 300/1/4
f 300/1/4 298/1/4 301/1/4
f 301/2/4 302/2/4 303/2/4
f 303/2/4 302/2/4 304/2/4
f 305/1/4 306/1/4 308/1/4
f 308/1/4 306/1/4 309/1/4
f 307/1/4 308/1/4 311/1/4
f 310/1/4 311/1/4 312/1/4
f 311/1/4 308/1/4 313/1/4
f 312/1/4 311/1/4 313/1/4
f 313/1/4 308/1/4 314/1/4
f 314/1/4 308/1/4 315/1/4
f 315/1/4 316/1/4 317/1/4
f 317/1/4 316/1/4 318/1/4
f 319/1/4 320/1/4 321/1/4
f 321/1/4 320/1/4 322/1/4
f 323/1/4 324/1/4 325/1/4
f 325/1/4 324/1/4 326/1/4
f 327/1/4 328/1/4 329/1/4
f 329/1/4 328/1/4 330/1/4
f 330/2/4 331/2/4 334/2/4
f 334/2/4 331/2/4 335/2/4
f 332/1/4 333/1/4 337/1/4
f 337/1/4 333/1/4 338/1/4
f 335/1/4 336/1/4 340/1/4
f 340/1/4 336/1/4 341/1/4
f 339/2/4 340/2/4 343/2/4
f 343/2/4 340/2/4 344/2/4
f 342/1/4 343/1/4 345/1/4
f 345/1/4 343/1/4 346/1/4
f 347/1/4 348/1/4 349/1/4
f 347/1/4 349/1/4 351/1/4
f 349/1/4 350/1/4 351/1/4
f 351/1/4 350/1/4 352/1/4
f 347/1/4 351/1/4 353/1/4
f 353/1/4 351/1/4 354/1/4
f 357/1/5 356/1/5 355/1/5
f 358/1/5 356/1/5 357/1/5
f 362/1/5 360/1/5 359/1/5
f 363/1/5 360/1/5 362/1/5
f 365/2/5 362/2/5 361/2/5
f 366/2/5 362/2/5 365/2/5
f 367/2/5 364/2/5 363/2/5
f 368/2/5 364/2/5 367/2/5
f 369/1/5 367/1/5 366/1/5
f 370/1/5 367/1/5 369/1/5
f 375/2/5 372/2/5 371/2/5
f 376/2/5 372/2/5 375/2/5
f 377/2/5 374/2/5 373/2/5
f 378/2/5 374/2/5 377/2/5
f 383/1/5 380/1/5 379/1/5
f 384/1/5 380/1/5 383/1/5
f 385/1/5 382/1/5 381/1/5
f 386/1/5 382/1/5 385/1/5
f 390/1/5 388/1/5 387/1/5
f 391/1/5 388/1/5 390/1/5
f 394/1/5 390/1/5 389/1/5
f 394/1/5 392/1/5 391/1/5
f 394/1/5 391/1/5 390/1/5
f 395/1/5 392/1/5 394/1/5
f 396/1/5 392/1/5 395/1/5
f 397/1/5 392/1/5 396/1/5
f 399/1/5 394/1/5 393/1/5
f 400/1/5 398/1/5 397/1/5
f 401/1/5 399/1/5 393/1/5
f 402/1/5 399/1/5 401/1/5
f 403/1/5 398/1/5 400/1/5
f 404/1/5 398/1/5 403/1/5
f 405/1/5 403/1/5 402/1/5
f 406/1/5 403/1/5 405/1/5
f 407/1/5 403/1/5 406/1/5
f 408/1/5 403/1/5 407/1/5
f 409/1/5 407/1/5 406/1/5
f 410/1/5 407/1/5 409/1/5
f 414/1/5 412/1/5 411/1/5
f 415/1/5 412/1/5 414/1/5
f 416/1/5 412/1/5 415/1/5
f 417/1/5 412/1/5 416/1/5
f 419/1/5 414/1/5 413/1/5
f 419/1/5 415/1/5 414/1/5
f 420/1/5 415/1/5 419/1/5
f 421/1/5 418/1/5 417/1/5
f 421/1/5 417/1/5 416/1/5
f 422/1/5 418/1/5 421/1/5
f 423/1/5 419/1/5 413/1/5
f 424/1/5 419/1/5 423/1/5
f 425/1/5 418/1/5 422/1/5
f 426/1/5 418/1/5 425/1/5
f 431/1/5 428/1/5 427/1/5
f 434/1/5 430/1/5 429/1/5
f 435/1/5 432/1/5 431/1/5
f 435/1/5 431/1/5 427/1/5
f 436/1/5 432/1/5 435/1/5
f 437/1/5 432/1/5 436/1/5
f 438/1/5 434/1/5 433/1/5
f 439/1/5 430/1/5 434/1/5
f 439/1/5 434/1/5 438/1/5
f 440/1/5 430/1/5 439/1/5
f 441/1/5 437/1/5 436/1/5
f 441/1/5 438/1/5 437/1/5
f 441/1/5 439/1/5 438/1/5
f 442/1/5 439/1/5 441/1/5
f 443/1/6 444/1/6 447/1/6
f 445/1/6 446/1/6 450/1/6
f 447/1/6 448/1/6 451/1/6
f 443/1/6 447/1/6 451/1/6
f 451/1/6 448/1/6 452/1/6
f 449/1/6 450/1/6 453/1/6
f 450/1/6 446/1/6 454/1/6
f 453/1/6 450/1/6 454/1/6
f 443/1/6 451/1/6 455/1/6
f 455/1/6 451/1/6 456/1/6
f 454/1/6 446/1/6 457/1/6
f 457/1/6 446/1/6 458/1/6
f 459/1/6 460/1/6 464/1/6
f 464/1/6 460/1/6 465/1/6
f 461/1/6 462/1/6 466/1/6
f 466/1/6 462/1/6 467/1/6
f 463/1/6 464/1/6 469/1/6
f 469/1/6 464/1/6 470/1/6
f 467/1/6 468/1/6 473/1/6
f 473/1/6 468/1/6 474/1/6
f 470/1/6 471/1/6 475/1/6
f 475/1/6 471/1/6 476/1/6
f 472/1/6 473/1/6 477/1/6
f 477/1/6 473/1/6 478/1/6
f 476/1/6 477/1/6 480/1/6
f 480/1/6 477/1/6 481/1/6
f 479/2/6 480/2/6 484/2/6
f 484/2/6 480/2/6 485/2/6
f 481/2/6 482/2/6 486/2/6
f 486/2/6 482/2/6 487/2/6
f 483/2/6 484/2/6 489/2/6
f 489/2/6 484/2/6 490/2/6
f 487/2/6 488/2/6 491/2/6
f 491/2/6 488/2/6 492/2/6
f 489/1/6 490/1/6 493/1/6
f 493/1/6 490/1/6 494/1/6
f 491/1/6 492/1/6 497/1/6
f 497/1/6 492/1/6 498/1/6
f 494/1/6 495/1/6 499/1/6
f 499/1/6 495/1/6 500/1/6
f 496/1/6 497/1/6 501/1/6
f 501/1/6 497/1/6 502/1/6
f 503/1/6 504/1/6 506/1/6
f 506/1/6 504/1/6 507/1/6
f 505/1/6 506/1/6 509/1/6
f 509/1/6 506/1/6 510/1/6
f 507/1/6 508/1/6 511/1/6
f 511/1/6 508/1/6 512/1/6
f 510/1/6 511/1/6 513/1/6
f 513/1/6 511/1/6 514/1/6
f 515/1/6 516/1/6 518/1/6
f 518/1/6 516/1/6 519/1/6
f 517/2/6 518/2/6 521/2/6
f 521/2/6 518/2/6 522/2/6
f 519/2/6 520/2/6 523/2/6
f 523/2/6 520/2/6 524/2/6
f 522/1/6 523/1/6 525/1/6
f 525/1/6 523/1/6 526/1/6
f 527/1/6 528/1/6 529/1/6
f 529/1/6 528/1/6 530/1/6
f 531/1/6 532/1/6 533/1/6
f 533/1/6 532/1/6 534/1/6
